<svg width="57" height="57" viewBox="0 0 57 57" fill="none" xmlns="http://www.w3.org/2000/svg">
<path d="M28.5 56C43.6878 56 56 43.6878 56 28.5C56 13.3122 43.6878 1 28.5 1C13.3122 1 1 13.3122 1 28.5C1 43.6878 13.3122 56 28.5 56Z" stroke="white" stroke-width="1.51564"/>
<path d="M54.1358 38.2418C46.899 46.8744 34.041 48.0004 25.4165 40.7568C16.7921 33.5131 15.6672 20.6428 22.9039 12.0101" stroke="white" stroke-width="1.51564" stroke-linecap="round"/>
<path d="M2.88914 18.7289C10.1259 10.0963 22.9839 8.97028 31.6084 16.2139C40.2328 23.4576 41.3577 36.3279 34.121 44.9606" stroke="white" stroke-width="1.51564" stroke-linecap="round"/>
<path d="M28.559 33.2497C31.1497 33.2497 33.2498 31.1495 33.2498 28.5588C33.2498 25.9682 31.1497 23.868 28.559 23.868C25.9683 23.868 23.8682 25.9682 23.8682 28.5588C23.8682 31.1495 25.9683 33.2497 28.559 33.2497Z" fill="white"/>
</svg>
