<svg width="75" height="60" viewBox="0 0 75 60" fill="none" xmlns="http://www.w3.org/2000/svg">
<path fill-rule="evenodd" clip-rule="evenodd" d="M74.5823 35.6979C74.2449 35.2762 73.7778 34.9776 73.2534 34.8481C72.7291 34.7186 72.1766 34.7655 71.6816 34.9816C70.8044 35.4755 70.7172 36.6981 70.6481 37.6658C70.599 38.3555 70.5594 38.9155 70.2488 38.9887C69.4072 39.199 67.0876 35.5476 68.1296 33.9798C68.4262 33.523 68.9097 33.3738 69.4051 33.221C69.9647 33.0487 70.5399 32.8709 70.88 32.2418C71.0659 31.8702 71.1464 31.4548 71.1128 31.0406C71.0793 30.6265 70.9329 30.2295 70.6897 29.8926C70.3275 29.4564 69.828 29.156 69.2729 29.0405C68.7178 28.9249 68.1399 29.0011 67.6337 29.2565C67.1938 29.4994 67.019 29.8456 66.8376 30.2057C66.6447 30.5879 66.4443 30.9856 65.9103 31.2901C65.2941 31.6457 64.3522 31.816 63.9063 31.4053C63.245 30.7992 63.6809 28.9009 64.7831 27.829C65.4258 27.2209 66.0546 27.1333 66.6452 27.0511C67.1492 26.981 67.6257 26.9144 68.0595 26.5317L68.1647 26.4265C69.3921 25.1593 70.354 19.5695 67.1627 14.3753C66.3752 13.1031 65.5671 12.2235 64.9454 11.5468C64.1553 10.6868 63.6654 10.1544 63.9013 9.55683C64.1428 8.95076 64.9193 8.82404 65.9524 8.65524C67.2519 8.44237 68.9568 8.16338 70.5143 6.78194L70.5228 6.77393C70.9126 6.42632 72.3705 5.12452 72.0574 3.89686C71.8019 2.8951 70.4993 2.45432 70.1987 2.35415C68.2223 1.67495 66.3496 2.78891 63.5777 4.43781C62.7521 4.92868 61.8468 5.46763 60.8353 6.0206C55.3646 9.02589 52.4789 10.5886 49.0021 10.0928C47.6945 9.90644 46.9079 9.51175 46.0938 9.10403C45.1144 8.61317 44.0969 8.10227 42.0885 7.91394C40.2283 7.73913 39.2329 7.98606 38.3632 8.20094C37.5135 8.41131 36.7851 8.59163 35.4905 8.31965C33.714 7.949 32.8148 7.12956 31.8068 6.21194C30.7998 5.29382 29.6836 4.27753 27.4748 3.51118L27.4031 3.48764C26.3726 3.14454 22.74 1.93541 21.3076 3.45108C20.8327 3.96398 20.8001 4.56304 20.7596 5.30534C20.7145 6.12979 20.6599 7.13056 19.98 8.38477L19.9615 8.41883C19.7341 8.84558 18.7241 10.7384 17.7707 10.5636C17.4826 10.4576 17.2352 10.2636 17.0634 10.0092C16.8917 9.75485 16.8044 9.45288 16.8138 9.14611C16.8138 8.65324 17.1069 8.37375 17.413 8.08223C17.6735 7.8343 17.943 7.57734 18.0512 7.17263C18.3919 5.89538 17.0242 3.66646 15.1606 3.61136C14.5829 3.63212 14.0243 3.82351 13.5553 4.16136C13.0863 4.49922 12.7279 4.9684 12.5254 5.5097C12.325 6.10124 12.4382 6.57858 12.5389 7.00734C12.6411 7.4391 12.7313 7.82227 12.4803 8.22448C11.9793 9.02589 10.276 9.3715 9.41928 8.72536C9.23392 8.58512 8.80307 8.18942 8.70789 5.58984C8.66631 4.51445 8.70789 3.72356 8.74045 3.10847C8.79456 2.08167 8.82311 1.54422 8.39728 0.986738C7.65081 0.030053 6.2731 0 5.92742 0C4.75512 0 3.4225 0.641129 3.03674 1.63788C2.72814 2.45182 3.24866 3.11899 3.9806 4.05714C4.50964 4.73584 5.14939 5.55628 5.66691 6.67676C7.16986 9.88741 6.9344 13.9646 5.66691 16.8597C5.09479 18.1795 4.41044 19.0215 3.84834 19.7132C3.12993 20.5968 2.61041 21.2359 2.77623 22.3143C2.91801 23.2379 3.45056 23.7643 4.02669 24.3339C4.65041 24.9499 5.32524 25.6171 5.6118 26.8924C5.74707 27.4984 5.51662 28.7055 5.0507 31.1048C4.12889 35.9784 3.69303 36.5644 3.12692 36.925C2.73816 37.1745 2.35641 37.2696 1.99119 37.3608C1.47618 37.4885 0.99423 37.6087 0.5719 38.1422C0.185977 38.6913 -0.0141475 39.3495 0.000778174 40.0205C0.000778174 43.1159 8.24197 49.397 14.5293 46.7072C16.9491 45.6754 19.6794 43.0708 19.2937 40.7468C19.0076 39.0107 17.0894 38.0605 15.2548 37.1519C13.4908 36.2784 11.8045 35.4439 11.7238 33.9848C11.6622 32.8674 12.583 32.1456 13.5579 31.3808C14.5674 30.5894 15.6345 29.7529 15.7317 28.385C15.8409 26.8222 14.597 25.8325 13.1541 24.6845C11.6246 23.4678 9.87217 22.0734 9.274 19.6296C8.37724 15.9531 10.4663 11.3951 12.6757 10.9643C13.3871 10.8241 14.3189 11.0745 14.5995 11.6405C14.8575 12.1479 14.4797 12.7069 13.9572 13.4802C13.5564 14.0733 13.0705 14.7925 12.7208 15.7127C12.1175 17.4288 12.0667 19.2906 12.5755 21.037C13.09 22.8072 14.1716 23.6351 15.1821 24.408C16.139 25.1408 17.0322 25.8245 17.3198 27.2129C17.6199 28.6625 17.0262 29.6733 16.4601 30.6364C15.9115 31.5711 15.3885 32.4612 15.7317 33.6643C16.154 35.1549 17.5302 35.8246 18.8899 36.4868C20.2726 37.1599 21.6378 37.8241 21.9689 39.3343C22.2781 40.7362 21.5291 42.0931 20.6023 43.7721L20.5912 43.7921C19.7356 45.3474 18.9119 46.1352 18.3178 46.7037C17.7642 47.2337 17.41 47.5728 17.415 48.1648C17.415 50.7794 24.4288 54.0702 29.9897 52.4173C30.9917 52.1268 33.7521 51.3053 34.0677 49.3519C34.2581 48.1798 33.5667 46.7022 32.4996 46.3767C31.7897 46.1538 31.2321 46.5535 30.4561 47.1095C29.8018 47.5783 28.9922 48.1583 27.8054 48.5705C25.5009 49.3719 22.4248 49.3168 21.8788 48.1398C21.4229 47.138 22.5952 45.1345 24.1983 44.5585C25.2203 44.1888 26.1376 44.4994 27.0103 44.7939C27.9121 45.0994 28.7658 45.3879 29.639 44.8941C30.041 44.6574 30.3724 44.3176 30.5987 43.9099C30.8251 43.5021 30.9383 43.0412 30.9265 42.575C30.8314 41.1675 29.3084 40.0054 28.3916 40.2158C28.1791 40.2659 28.0779 40.3716 27.9457 40.5083C27.771 40.7006 27.5642 40.8609 27.3345 40.9822C27.2493 41.0323 25.9417 41.7185 25.2203 41.1725C24.6642 40.7518 24.6893 39.765 24.8747 39.1439C25.3005 37.6814 27.084 36.5994 28.7823 36.5093C29.7723 36.4582 30.4261 36.7602 31.0182 37.0342C31.6425 37.3227 32.198 37.5797 33.0056 37.3558C33.6001 37.1856 34.132 36.8457 34.536 36.3777C34.94 35.9097 35.1986 35.334 35.2801 34.7211C35.3285 34.1181 35.1901 33.5148 34.8835 32.9933C34.577 32.4717 34.1172 32.0572 33.5667 31.806C32.5888 31.4624 31.7917 32.0985 30.8113 32.8809C29.863 33.6382 28.7423 34.5328 27.1191 34.8113C23.8176 35.3773 19.965 33.1834 19.5041 30.7742C19.3087 29.7674 19.7927 29.0567 20.2977 28.3154C20.8177 27.5525 21.3597 26.7566 21.2074 25.57C21.0456 24.1976 20.1068 23.4353 19.1459 22.6549C18.1985 21.886 17.2301 21.0997 16.9641 19.6947C16.6084 17.8214 17.7557 16.1885 19.2336 14.1449C20.5261 12.3367 23.8577 7.69355 27.9006 7.95401C29.3414 8.04867 30.1225 8.71535 30.9882 9.45465C31.91 10.242 32.929 11.1116 34.9444 11.4602C36.3181 11.7111 37.1262 11.5318 38.0095 11.336C38.8882 11.1406 39.8406 10.9297 41.4973 11.1096C43.3775 11.3134 44.3279 11.8158 45.2622 12.3107C46.0503 12.7274 46.8268 13.1386 48.1404 13.3585C50.7605 13.7908 52.4213 12.9638 53.9528 12.2015C55.3495 11.5058 56.6391 10.8641 58.4506 11.2799C63.6358 12.472 66.2159 20.6113 64.9634 23.0356C64.5616 23.823 64.0226 24.15 63.4003 24.5282C63.0211 24.7581 62.6113 25.0065 62.183 25.3897C61.7292 25.8161 61.3304 26.2973 60.9956 26.8222C60.1389 28.1145 59.167 30.5488 59.9085 32.5373C60.2351 33.4138 60.7126 33.7094 61.417 34.1441C62.0086 34.5098 62.7601 34.9736 63.716 35.9633C64.9429 37.2291 65.4218 38.2393 65.8076 39.0523C66.2099 39.8988 66.51 40.5319 67.4483 41.0172C69.5274 42.0891 72.7537 41.4129 74.1364 39.4495C74.7426 38.608 75.4791 36.8599 74.5823 35.6979V35.6979ZM11.3831 40.1307C10.8486 40.6651 9.74693 40.3636 9.15527 40.2018L9.13372 40.1958C8.54346 40.0445 7.99107 39.7723 7.51157 39.3964C7.03207 39.0204 6.63592 38.549 6.34825 38.0119C5.53666 36.3039 6.02762 33.8847 7.10474 33.504C8.43235 33.0632 10.2659 35.9132 10.4663 36.2288C10.4739 36.2433 10.4884 36.2674 10.5079 36.3009V36.3014C10.799 36.7983 12.2463 39.2676 11.3831 40.1307ZM11.2429 26.131C11.804 26.672 12.6907 27.5285 12.5955 28.6655C12.5003 29.8025 11.3831 30.5839 10.7569 30.9896C10.3211 31.2701 8.75298 32.2718 7.86623 31.7409C6.2731 30.8143 7.01456 25.3597 8.78804 24.8738C9.6798 24.6349 10.7599 25.6687 11.2349 26.1235L11.2429 26.131ZM69.9783 44.1978C69.5644 43.7136 68.9966 43.3865 68.3701 43.2712C67.5846 43.1725 67.0781 43.6028 66.516 44.0806C66.0195 44.5019 65.4799 44.9602 64.6678 45.1245C62.8142 45.5001 60.8103 44.0726 60.9155 43.5116C60.9661 43.2391 61.4966 43.2161 62.1474 43.1876C63.0396 43.149 64.1578 43.1004 64.5727 42.3846C65.3842 40.9772 63.0697 37.6663 60.675 35.6778C59.9526 35.0808 59.3749 34.7292 58.912 34.4472C58.2102 34.0199 57.7733 33.7534 57.4988 33.0382C57.0639 31.9112 57.5138 30.9144 57.9406 29.9713C58.3344 29.0997 58.7086 28.2728 58.3454 27.4283C57.9787 26.5758 57.1265 26.4396 56.0689 26.2698C54.9447 26.0894 53.5876 25.8721 52.3336 24.7185C50.8306 23.3411 49.3728 20.5362 49.8637 17.9767C49.9274 17.6461 50.0216 17.3315 50.1097 17.04C50.3121 16.3673 50.479 15.8123 50.1543 15.4422C49.6884 14.9113 48.6514 15.0765 47.8748 15.4422C46.5673 16.0643 46.0162 17.4372 45.5919 18.4956C45.2742 19.2865 45.0277 19.9015 44.5884 19.895C44.0874 19.895 43.6315 19.0485 43.4912 18.3924C43.2708 17.4077 43.7302 16.6493 44.14 15.9721C44.4872 15.3991 44.7988 14.8842 44.6335 14.3403C44.1926 12.9278 40.7609 11.9961 39.0174 13.2834C38.284 13.8369 38.2078 14.5096 38.1041 15.4262C38.0205 16.169 37.9188 17.0721 37.4343 18.2021C35.9715 21.5479 32.0237 23.8169 29.4186 24.4831C28.4617 24.7275 27.7864 24.7566 27.2203 24.7806C26.4528 24.8132 25.8856 24.8377 25.0901 25.3797C23.1412 26.707 21.7535 29.7875 22.9358 31.5706C23.7875 32.8529 25.7965 33.1985 27.3245 32.8979C28.8475 32.6124 29.6049 31.7409 31.435 29.6377C32.1094 28.8623 32.9295 27.9197 33.9876 26.7772C37.9153 22.5347 39.2329 21.9086 40.1246 22.2191C40.3815 22.2955 40.6118 22.4427 40.789 22.6437C40.9661 22.8448 41.0832 23.0917 41.1266 23.3561C41.1266 23.8149 40.6882 24.0974 40.0364 24.5192C39.5495 24.8337 38.9428 25.2254 38.3111 25.8255C37.5623 26.4498 36.9674 27.2382 36.5726 28.1295C35.7099 30.4621 37.3426 33.1118 37.8181 33.8832L37.8251 33.8947C38.5225 35.0172 39.2709 35.7459 39.8571 36.3165C40.5625 37.0037 41.0329 37.462 40.8961 38.1021C40.7108 38.9536 39.5635 39.5346 38.6818 39.6699C37.7605 39.8116 37.1237 39.4645 36.5175 39.1344C35.9464 38.8239 35.4028 38.5273 34.6739 38.6681C33.9646 38.8627 33.3403 39.2878 32.8994 39.8764C32.4586 40.465 32.2263 41.1836 32.2391 41.9188C32.2792 42.9657 32.8904 44.1678 33.9074 44.5434C34.8783 44.9056 35.8397 44.3691 36.6272 43.9294C37.2334 43.5913 37.7359 43.3108 38.0601 43.5417C38.8065 44.0726 38.0601 46.9727 36.5571 49.3619C35.6689 50.7674 34.746 51.6585 34.0046 52.3742C33.0728 53.2728 32.4275 53.8964 32.4946 54.9167C32.5998 56.5095 34.3483 57.4812 34.5887 57.6114C36.227 58.498 38.3812 58.2175 39.4683 57.1106C40.0495 56.519 40.0805 55.963 40.1296 55.1C40.1717 54.3487 40.2273 53.3645 40.6707 51.9214C41.1166 50.4639 41.843 48.0947 43.4461 47.684C43.9035 47.5673 44.2788 47.6504 44.6285 47.7275C45.0438 47.8192 45.4225 47.9029 45.8609 47.6339C46.2462 47.3653 46.5335 46.9784 46.679 46.5319C46.8246 46.0854 46.8205 45.6035 46.6675 45.1595C46.5646 44.8338 46.3734 44.5429 46.1152 44.3192C45.8569 44.0955 45.5418 43.9477 45.2046 43.8923C44.6515 43.8728 44.2632 44.3005 43.9356 44.6616C43.6696 44.9547 43.4431 45.2041 43.2007 45.1345C42.6596 44.9792 42.1436 43.0157 43.1305 41.8437C43.4116 41.5021 43.7844 41.248 44.2052 41.1113C44.6259 40.9746 45.077 40.9611 45.5052 41.0723C46.1429 41.3077 46.3659 41.8978 46.5883 42.4878C46.8012 43.0513 47.0142 43.6153 47.5893 43.8723C48.6864 44.3731 50.475 43.4615 51.2415 42.1092C52.2985 40.2359 51.3366 37.6012 50.3397 37.4109C49.975 37.3357 49.6884 37.6012 49.3462 37.9198C48.959 38.2794 48.4996 38.7062 47.7746 38.7833C46.7111 38.9025 45.8298 38.1742 45.1946 37.6493L45.1795 37.6363C43.3309 36.0986 41.4372 32.9981 42.2287 29.8225C42.4943 28.7657 43.0955 27.9442 44.3028 26.3163C45.5102 24.6885 46.5072 23.3461 47.6344 23.5214C47.8988 23.5638 48.148 23.673 48.3585 23.8387C48.5689 24.0044 48.7335 24.221 48.8367 24.4681C49.0842 25.2109 48.475 25.853 47.706 26.6645C46.9185 27.4954 45.9626 28.5032 45.5853 29.9778C44.9341 32.5323 46.2567 35.4875 47.4941 35.6678C47.93 35.7304 48.2541 35.4289 48.6073 35.1008C48.989 34.7457 49.4038 34.36 50.0291 34.3705C51.2314 34.3906 52.3587 35.9132 52.8396 37.1805C53.3822 38.61 53.1427 39.766 52.9127 40.878C52.6773 42.0145 52.4518 43.1049 53.0801 44.3932C53.3867 45.0318 53.6707 45.2417 54.0029 45.4871C54.322 45.7225 54.6852 45.9905 55.1541 46.7022C56.2463 48.3602 56.2979 49.969 56.3385 51.2442C56.374 52.3602 56.4016 53.2207 57.113 53.6344C58.115 54.2305 59.9486 53.5743 60.6199 52.4423C61.2912 51.3104 60.685 49.6825 60.2091 48.8761C59.5989 47.8643 58.9661 47.3454 58.4626 46.9326C57.9692 46.5284 57.6 46.2254 57.4988 45.6604C57.4472 45.4681 57.4459 45.2657 57.495 45.0728C57.5441 44.8798 57.642 44.7027 57.7793 44.5585C58.1981 44.2539 58.9155 44.6406 58.9857 44.6787H58.9867C59.5563 45.0007 59.7477 45.4961 60.0042 46.1613C60.147 46.5319 60.3098 46.9542 60.5698 47.4285C60.95 48.1951 61.4817 48.8767 62.1329 49.432C64.6378 51.1801 70.6797 48.0747 70.6496 45.7806C70.6044 45.194 70.3687 44.6381 69.9783 44.1978V44.1978ZM51.1012 31.7108C50.4634 31.5556 49.9349 31.7765 49.5106 31.9543C49.1413 32.1085 48.8508 32.2303 48.6363 32.0414C48.1754 31.6357 48.446 29.7624 49.5832 29.0061C50.9759 28.0845 52.8747 29.2315 53.2855 29.507C54.3175 30.1331 55.9006 31.6057 55.4547 32.8579C55.332 33.1825 55.1165 33.4639 54.835 33.667C54.5535 33.87 54.2185 33.9858 53.8716 33.9999C53.278 33.9578 52.9468 33.484 52.5901 32.9726C52.2244 32.4486 51.8316 31.8856 51.1012 31.7108V31.7108ZM59.2672 41.4931C58.135 42.2244 56.3064 41.6383 55.565 40.3561C54.9988 39.3543 55.0239 37.9017 55.7553 37.3508C56.9427 36.4542 60.0788 37.8817 60.2141 39.6799C60.2252 40.0396 60.1423 40.396 59.9737 40.714C59.805 41.032 59.5563 41.3005 59.2522 41.4931H59.2672V41.4931ZM59.9315 20.7746C60.0468 20.2657 60.1645 19.7478 60.7101 19.3391C61.0643 19.0632 61.4928 18.8991 61.9408 18.8679C62.3888 18.8367 62.8359 18.9397 63.225 19.1637C64.0015 19.7348 64.0867 21.0721 63.7611 21.9487C62.7641 24.6334 56.6821 26.2212 53.7764 23.6667C52.8316 22.7444 52.226 21.5301 52.0581 20.2206L52.0556 20.2086C51.9599 19.6726 51.4754 16.9589 53.2905 14.8612C54.3977 13.5739 56.8425 11.926 58.7713 13.0129C59.3752 13.4175 59.8522 13.9849 60.147 14.6492C60.4419 15.3136 60.5426 16.0478 60.4375 16.767C60.3331 17.4863 60.027 18.1614 59.5548 18.7141C59.0826 19.2667 58.4636 19.6744 57.7693 19.89C57.134 20.0288 56.5714 19.894 56.1095 19.7828C55.6381 19.6701 55.2714 19.5825 55.0389 19.8349C54.6932 20.1956 54.9337 20.997 55.2694 21.4979C56.076 22.6499 58.1851 22.9304 59.2472 22.0989C59.7146 21.7313 59.8223 21.2564 59.9315 20.7746V20.7746ZM56.3285 16.0428C56.2207 16.25 56.1667 16.4809 56.1711 16.7144C56.1773 17.0409 56.2927 17.3559 56.4988 17.6092C56.7049 17.8625 56.9899 18.0394 57.3084 18.1119C58.2602 18.2571 59.2372 17.04 58.9566 16.1985C58.8137 15.9126 58.587 15.6769 58.3068 15.523C58.0266 15.3691 57.7061 15.3042 57.388 15.337C57.177 15.3591 56.9726 15.4239 56.7874 15.5273C56.5938 15.6582 56.436 15.8353 56.3285 16.0428V16.0428ZM35.1799 13.4587C34.9059 13.1893 34.5693 12.9921 34.2004 12.8845C33.8315 12.777 33.4416 12.7626 33.0657 12.8426C32.2041 13.0565 31.8759 13.8068 31.432 14.8216C31.0653 15.6601 30.6194 16.6799 29.7287 17.7262C29.4481 18.0568 26.9232 20.9669 24.9343 20.2306C23.3211 19.6546 22.5646 16.8697 23.266 16.2236C23.5455 15.9676 23.9538 16.1309 24.4924 16.3463C25.1231 16.5982 25.9317 16.9218 26.9187 16.7245C28.6621 16.3688 30.4256 14.4404 30.2452 12.3968C30.2452 12.3117 30.0398 10.3933 28.6571 9.76219C26.0284 8.53753 22.0291 13.2098 21.4239 13.917L21.4129 13.9295L21.4098 13.9325C20.1779 15.3801 18.6224 17.2068 19.1234 19.1087C19.4425 20.3398 20.481 21.0601 21.3452 21.6596L21.3577 21.6682C22.8082 22.6348 24.5093 23.157 26.2524 23.1708H26.2624C27.1316 23.1968 31.668 23.3326 34.1779 20.0303C35.6759 18.1019 36.5726 14.8261 35.1799 13.4587V13.4587ZM26.2724 15.2118C26.0573 15.1321 25.8665 14.9979 25.719 14.8223C25.5714 14.6466 25.4721 14.4356 25.4307 14.21C25.4002 14.0295 25.4085 13.8445 25.4552 13.6674C25.5018 13.4904 25.5857 13.3253 25.7013 13.1832C25.9048 12.9694 26.1668 12.8202 26.4545 12.7542C26.7423 12.6883 27.0431 12.7086 27.3195 12.8126C27.5692 12.89 27.7921 13.0364 27.9622 13.2349C28.1324 13.4334 28.243 13.6759 28.2813 13.9345C28.2914 14.756 27.1141 15.5273 26.2724 15.2118ZM50.0742 45.7806C51.4619 45.44 53.4508 47.674 54.3075 49.7476C54.3977 49.963 56.4317 55.097 53.04 58.2325C50.2996 60.787 45.7607 60.3964 43.5614 58.1875C43.5564 58.1825 43.5513 58.1769 43.5463 58.1704C43.2968 57.8909 41.823 56.238 42.0584 54.2305C42.2979 52.1849 44.0679 50.9397 44.6164 50.5535L44.623 50.549C45.1841 50.1573 45.5272 50.0471 45.8664 49.9379C46.192 49.8333 46.5127 49.7301 47.0182 49.382C48.1298 48.6121 48.5912 47.7215 48.9585 47.0138C49.2791 46.3947 49.5271 45.9164 50.0742 45.7806V45.7806ZM46.9731 54.1253C47.4139 54.9468 49.2826 55.1521 50.6002 54.4459C50.7806 54.3607 52.3035 53.5092 52.3136 51.8313C52.3336 50.8345 51.8226 49.5823 50.9809 49.3569C49.2676 48.8961 46.2266 52.7078 46.9731 54.1253Z" fill="white"/>
</svg>
